<svg width="175" height="129" viewBox="0 0 175 129" fill="none" xmlns="http://www.w3.org/2000/svg">
<g clip-path="url(#clip0_2525_341)">
<path d="M28.5299 125.9C21.2699 114.84 17.0399 101.64 17.0399 87.4498C17.0399 48.6898 48.5699 17.1598 87.3299 17.1598C126.09 17.1598 157.62 48.6898 157.62 87.4498C157.62 101.63 153.38 114.84 146.13 125.9H165.81C171.52 114.29 174.74 101.24 174.74 87.4498C174.74 39.2498 135.53 0.0498047 87.3399 0.0498047C39.1499 0.0498047 -0.0600586 39.2598 -0.0600586 87.4498C-0.0600586 101.24 3.15994 114.29 8.86994 125.9H28.5299Z" fill="#4A4AF4"/>
<path d="M88.5098 45.9199C75.7098 45.9199 60.9798 51.9499 52.9798 58.3299L60.2798 73.6999C66.6898 67.8299 77.0598 62.8199 86.4098 62.8199C95.2998 62.8199 100.2 65.7899 100.2 71.7799C100.2 75.8099 96.9398 78.0799 90.7998 78.6399C67.7398 80.7599 49.8198 87.9599 49.8198 105.66C49.8198 119.7 59.9398 128.18 76.5898 128.18C87.7298 128.18 96.4798 121.99 101.2 113.82V125.89H121.96V75.2999C121.97 54.4099 107.44 45.9199 88.5098 45.9199ZM82.4498 111.96C75.7198 111.96 72.0298 109.08 72.0298 104.35C72.0298 94.4899 84.0798 92.1099 99.7698 92.1099C99.7698 102.43 92.8598 111.96 82.4498 111.96Z" fill="black"/>
</g>
<defs>
<clipPath id="clip0_2525_341">
<rect width="174.82" height="128.16" fill="white"/>
</clipPath>
</defs>
</svg>
